<svg version="1.1" xmlns="http://www.w3.org/2000/svg" xmlns:xlink="http://www.w3.org/1999/xlink" width="62.75" height="65.00204" viewBox="0,0,62.75,65.00204"><g transform="translate(-209.5,-158.30001)"><g data-paper-data="{&quot;isPaintingLayer&quot;:true}" fill-rule="nonzero" stroke-linejoin="miter" stroke-miterlimit="10" stroke-dasharray="" stroke-dashoffset="0" style="mix-blend-mode: normal"><path d="M209.5,181.30001c0,-12.70255 10.29745,-23 23,-23c12.70255,0 23,10.29745 23,23c0,12.70255 -10.29745,23 -23,23c-12.70255,0 -23,-10.29745 -23,-23z" fill="#000000" stroke="none" stroke-width="0" stroke-linecap="butt"/><path d="M248.25,199.80001c0,-1.76687 -5.48232,-2.42469 -4.79663,-3.93515c1.88629,-4.15521 11.93608,-8.06485 16.79663,-8.06485c6.62742,0 12,5.37258 12,12c0,6.62742 -5.37258,12 -12,12c-6.62742,0 -12,-5.37258 -12,-12z" fill="#000000" stroke="none" stroke-width="0" stroke-linecap="butt"/><path d="M238.31111,201.26545c0,0 4.16104,-1.61068 7.45748,-0.91916c4.1741,0.99134 6.39454,4.74993 6.39454,4.74993" fill="none" stroke="#000000" stroke-width="4.5" stroke-linecap="round"/><path d="M262.50906,190.29333c0,0 -5.93984,-0.46807 -7.90721,-3.11001c-1.99499,-2.5353 -1.31157,-7.2 -1.31157,-7.2" fill="none" stroke="#000000" stroke-width="4.5" stroke-linecap="round"/><path d="M236.60634,216.29054c0,-3.87235 3.13916,-7.01152 7.01152,-7.01152c3.87235,0 7.01152,3.13916 7.01152,7.01152c0,3.87235 -3.13916,7.01152 -7.01152,7.01152c-3.87235,0 -7.01152,-3.13916 -7.01152,-7.01152z" fill="#000000" stroke="none" stroke-width="0" stroke-linecap="butt"/></g></g></svg>