<svg version="1.1" xmlns="http://www.w3.org/2000/svg" xmlns:xlink="http://www.w3.org/1999/xlink" width="351" height="351" viewBox="0,0,351,351"><g transform="translate(-64.5,-4.5)"><g data-paper-data="{&quot;isPaintingLayer&quot;:true}" fill-rule="nonzero" stroke-linecap="butt" stroke-linejoin="miter" stroke-miterlimit="10" stroke-dasharray="" stroke-dashoffset="0" style="mix-blend-mode: normal"><path d="M64.5,180c0,-96.92597 78.57403,-175.5 175.5,-175.5c96.92597,0 175.5,78.57403 175.5,175.5c0,96.92597 -78.57403,175.5 -175.5,175.5c-96.92597,0 -175.5,-78.57403 -175.5,-175.5z" fill="#634040" stroke="none" stroke-width="0"/><path d="M73,180c0,-92.23155 74.76845,-167 167,-167c92.23155,0 167,74.76845 167,167c0,92.23155 -74.76845,167 -167,167c-92.23155,0 -167,-74.76845 -167,-167z" fill="none" stroke="#ff0000" stroke-width="2.5"/><path d="M129.5,180c0,-61.02746 49.47254,-110.5 110.5,-110.5c61.02746,0 110.5,49.47254 110.5,110.5c0,61.02746 -49.47254,110.5 -110.5,110.5c-61.02746,0 -110.5,-49.47254 -110.5,-110.5z" fill="none" stroke="#ff7373" stroke-width="2"/><path d="M228.5,180c0,-6.35127 5.14873,-11.5 11.5,-11.5c6.35127,0 11.5,5.14873 11.5,11.5c0,6.35127 -5.14873,11.5 -11.5,11.5c-6.35127,0 -11.5,-5.14873 -11.5,-11.5z" fill="none" stroke="#ffd3d3" stroke-width="2"/></g></g></svg>